<svg xmlns="http://www.w3.org/2000/svg"
     viewBox="0 0 24 24"
     fill="none">

    <!-- Image Frame -->
    <path
        d="M5 3H19C20.1 3 21 3.9 21 5V11
           C21 11.55 20.55 12 20 12
           C19.45 12 19 11.55 19 11V5H5V19H11
           C11.55 19 12 19.45 12 20
           C12 20.55 11.55 21 11 21H5
           C3.9 21 3 20.1 3 19V5
           C3 3.9 3.9 3 5 3Z"
        fill="white"/>

    <!-- Sun -->
    <circle
        cx="8"
        cy="8"
        r="2"
        fill="white"/>

    <!-- Mountain -->
    <path
        d="M20 21H7
           C7 16.6 10.6 13 15 13
           C17.8 13 20.2 14.4 21.6 16.6
           C21.9 17.1 22 17.6 22 18.1V19
           C22 20.1 21.1 21 20 21Z"
        fill="white"/>

</svg>
