<svg xmlns="http://www.w3.org/2000/svg"
     viewBox="0 0 24 24"
     fill="none">

  <!-- Wand -->
  <g transform="rotate(45 12 12)">
    <rect x="10.2" y="3" width="3.6" height="16"
          rx="1.2" fill="white"/>

    <!-- Hole -->
    <rect x="10.95" y="4.6" width="2.1" height="4.8"
          rx="0.4" fill="black"/>
  </g>

  <!-- Top Left Sparkle -->
  <path d="M4 2.5
           L4.5 4
           L6 4.5
           L4.5 5
           L4 6.5
           L3.5 5
           L2 4.5
           L3.5 4Z"
        fill="white"/>

  <!-- Top Center Sparkle -->
  <path d="M11 2
           L11.35 3
           L12.4 3.35
           L11.35 3.7
           L11 4.8
           L10.65 3.7
           L9.6 3.35
           L10.65 3Z"
        fill="white"/>

  <!-- Bottom Right Sparkle -->
  <path d="M19 14
           L19.7 16
           L22 16.7
           L19.7 17.4
           L19 20
           L18.3 17.4
           L16 16.7
           L18.3 16Z"
        fill="white"/>

</svg>
